#N canvas 966 262 200 200 10;
#N canvas 19 48 420 300 META 0;
#X text 10 10 META I am a libdir meta file;
#X text 10 30 NAME saw~;
#X text 10 51 AUTHOR R. Kevin Nelson;
#X text 10 90 LICENSE MIT;
#X text 10 110 VERSION 1.0.0;
#X text 10 70 DESCRIPTION Example "hello world" external.;
#X restore 10 10 pd META;
